<?xml version="1.0" encoding="utf-8"?>
<!-- Generator: Adobe Illustrator 25.4.1, SVG Export Plug-In . SVG Version: 6.00 Build 0)  -->
<svg version="1.1" id="Layer_1" xmlns="http://www.w3.org/2000/svg" xmlns:xlink="http://www.w3.org/1999/xlink" x="0px" y="0px"
	 viewBox="0 0 512 512" style="enable-background:new 0 0 512 512;" xml:space="preserve">
<style type="text/css">
	.st0{stroke:#000000;stroke-width:3;stroke-miterlimit:10;fill:#000000}
	.st1{stroke:#000000;stroke-miterlimit:10;;fill:#000000}
</style>
<g>
	<path class="st0" d="M255.9,331c-0.76,0.82-181.94,4.89-183.22,4.92c-2.54-0.03-4.12-0.04-4.72-0.04
		c-2.4-0.08-11.38,0.28-26.95,1.07c-2.29,0.12-3.88,0.14-4.76,0.07c-0.42-0.02-1.71,0.05-3.88,0.18c-0.14,0.06-0.45,0.1-0.91,0.14
		c-0.47,0.03-0.82,0.06-1.07,0.06c-0.24,0.01-0.57,0.01-0.96,0.02c-0.4,0.01-0.75-0.02-1.07-0.08c-0.32-0.06-0.61-0.13-0.89-0.2
		s-0.98-0.07-2.1,0.01c-0.49,0.01-1.19,0.07-2.1,0.16c-0.91,0.09-1.62,0.16-2.12,0.21c-0.5,0.05-1.15,0.06-1.92,0.04
		c-0.78-0.03-1.49-0.1-2.11-0.22c-0.12-0.02-0.32-0.01-0.6,0.01c-0.28,0.02-0.46,0.05-0.53,0.08c-1.19,0.11-2.42,0.14-3.68,0.09
		c-1.26-0.05-2.79-0.14-4.6-0.28c-1.8-0.14-3.07-0.22-3.79-0.24c-0.24-0.03-0.49-0.08-0.77-0.16c-0.28-0.07-0.51-0.15-0.7-0.23
		c-0.19-0.08-0.4-0.18-0.63-0.31c-0.23-0.12-0.43-0.22-0.59-0.28c-0.65-0.81-1.01-1.26-1.1-1.35c-0.3-0.38-0.11-0.68,0.57-0.9
		c0.4-0.1,0.87-0.23,1.4-0.39c7.55-1.92,12.91-3.05,16.06-3.4c12.49-1.43,20.68-2.25,24.58-2.47c2.36-0.15,5.48-0.32,9.36-0.5
		c3.89-0.18,8.04-0.35,12.46-0.5c4.42-0.15,151.76-2.57,153.55-2.49c0.84,0.03,37.72-1.15,38.77-1.01c0.81,0.1,1.22,0.35,1.22,0.73
		C258.24,326.84,257.5,329.27,255.9,331z"/>
	<path class="st0" d="M256.06,322.96c0.77-0.81,182-3.88,183.29-3.9c2.54,0.04,4.12,0.06,4.72,0.07c2.4,0.1,11.39-0.21,26.96-0.92
		c2.29-0.11,3.88-0.12,4.76-0.04c0.42,0.02,1.71-0.04,3.89-0.16c0.14-0.06,0.45-0.1,0.91-0.13c0.47-0.03,0.82-0.05,1.07-0.06
		c0.24,0,0.57-0.01,0.96-0.01c0.4,0,0.75,0.02,1.06,0.09c0.32,0.06,0.61,0.13,0.89,0.21c0.28,0.08,0.98,0.08,2.1,0
		c0.49-0.01,1.19-0.06,2.1-0.15c0.91-0.09,1.62-0.15,2.12-0.2c0.5-0.05,1.15-0.05,1.93-0.03c0.78,0.03,1.49,0.11,2.11,0.23
		c0.12,0.02,0.32,0.01,0.6,0s0.46-0.04,0.53-0.07c1.19-0.11,2.42-0.13,3.68-0.07c1.26,0.06,2.79,0.16,4.59,0.31
		c1.8,0.15,3.07,0.23,3.79,0.26c0.24,0.03,0.49,0.08,0.77,0.16c0.28,0.08,0.51,0.15,0.69,0.24c0.19,0.08,0.39,0.19,0.62,0.31
		c0.23,0.13,0.43,0.22,0.59,0.28c0.63,0.81,0.99,1.26,1.09,1.35c0.3,0.38,0.1,0.68-0.58,0.9c-0.4,0.1-0.87,0.23-1.41,0.38
		c-7.58,1.87-12.95,2.98-16.11,3.32c-12.51,1.36-20.72,2.14-24.62,2.33c-2.36,0.14-5.48,0.29-9.37,0.45
		c-3.89,0.16-8.04,0.3-12.47,0.43c-4.42,0.12-151.79,1.73-153.58,1.64c-0.84-0.04-37.74,0.94-38.78,0.8
		c-0.81-0.11-1.21-0.36-1.21-0.74C253.66,327.11,254.43,324.69,256.06,322.96z"/>
	<path class="st0" d="M257.9,161.72c-0.67,0.82-160.13,4.89-161.26,4.92c-2.24-0.03-3.62-0.04-4.16-0.04
		c-2.11-0.08-10.02,0.28-23.72,1.07c-2.02,0.12-3.41,0.14-4.19,0.07c-0.37-0.02-1.51,0.05-3.42,0.18c-0.12,0.06-0.39,0.1-0.8,0.14
		c-0.41,0.03-0.72,0.06-0.94,0.06c-0.22,0.01-0.5,0.01-0.85,0.02c-0.35,0.01-0.66-0.02-0.94-0.08c-0.28-0.06-0.54-0.13-0.79-0.2
		c-0.25-0.07-0.86-0.07-1.85,0.01c-0.43,0.01-1.05,0.07-1.85,0.16c-0.8,0.09-1.42,0.16-1.86,0.21c-0.44,0.05-1.01,0.06-1.69,0.04
		c-0.69-0.03-1.31-0.1-1.86-0.22c-0.1-0.02-0.28-0.01-0.52,0.01c-0.25,0.02-0.4,0.05-0.46,0.08c-1.05,0.11-2.13,0.14-3.23,0.09
		c-1.11-0.05-2.46-0.14-4.05-0.28c-1.59-0.14-2.7-0.22-3.34-0.24c-0.21-0.03-0.43-0.08-0.68-0.16c-0.25-0.07-0.45-0.15-0.61-0.23
		c-0.16-0.08-0.35-0.18-0.55-0.31c-0.2-0.12-0.38-0.22-0.52-0.28c-0.57-0.81-0.89-1.26-0.97-1.35c-0.26-0.38-0.1-0.68,0.5-0.9
		c0.35-0.1,0.76-0.23,1.24-0.39c6.65-1.92,11.36-3.05,14.13-3.4c10.99-1.43,18.21-2.25,21.64-2.47c2.07-0.15,4.82-0.32,8.24-0.5
		c3.42-0.18,7.08-0.35,10.97-0.5c3.89-0.15,133.57-2.57,135.15-2.49c0.74,0.03,33.2-1.15,34.12-1.01c0.72,0.1,1.07,0.35,1.07,0.73
		C259.96,157.56,259.31,159.98,257.9,161.72z"/>
	<path class="st0" d="M258.04,153.68c0.68-0.81,160.19-3.88,161.32-3.9c2.24,0.04,3.62,0.06,4.16,0.07
		c2.11,0.1,10.02-0.21,23.73-0.92c2.02-0.11,3.41-0.12,4.19-0.04c0.37,0.02,1.51-0.04,3.42-0.16c0.13-0.06,0.39-0.1,0.8-0.13
		c0.41-0.03,0.73-0.05,0.94-0.06s0.5-0.01,0.85-0.01c0.35,0,0.66,0.02,0.94,0.09c0.28,0.06,0.54,0.13,0.78,0.21
		c0.25,0.08,0.86,0.08,1.85,0c0.43-0.01,1.05-0.06,1.85-0.15s1.43-0.15,1.87-0.2c0.44-0.05,1.01-0.05,1.69-0.03
		c0.69,0.03,1.31,0.11,1.86,0.23c0.1,0.02,0.28,0.01,0.52,0c0.25-0.02,0.4-0.04,0.46-0.07c1.05-0.11,2.13-0.13,3.24-0.07
		c1.1,0.06,2.45,0.16,4.04,0.31c1.59,0.15,2.7,0.23,3.33,0.26c0.21,0.03,0.43,0.08,0.67,0.16c0.25,0.08,0.45,0.15,0.61,0.24
		c0.16,0.08,0.35,0.19,0.55,0.31c0.2,0.13,0.37,0.22,0.52,0.28c0.56,0.81,0.87,1.26,0.96,1.35c0.26,0.38,0.09,0.68-0.51,0.9
		c-0.35,0.1-0.77,0.23-1.24,0.38c-6.67,1.87-11.4,2.98-14.18,3.32c-11.01,1.36-18.23,2.14-21.67,2.33
		c-2.07,0.14-4.83,0.29-8.24,0.45c-3.42,0.16-7.08,0.3-10.97,0.43c-3.89,0.12-133.6,1.73-135.18,1.64
		c-0.74-0.04-33.21,0.94-34.13,0.8c-0.71-0.11-1.07-0.36-1.06-0.74C255.93,157.82,256.61,155.41,258.04,153.68z"/>
	<path class="st0" d="M180.01,256.46c-0.79-0.75-4.74-180.12-4.76-181.39c0.03-2.52,0.04-4.08,0.04-4.68
		c0.08-2.38-0.27-11.27-1.04-26.68c-0.12-2.27-0.14-3.84-0.06-4.71c0.02-0.41-0.04-1.7-0.18-3.85c-0.06-0.14-0.1-0.44-0.14-0.9
		c-0.03-0.46-0.05-0.81-0.06-1.06c-0.01-0.24-0.01-0.56-0.02-0.95c-0.01-0.4,0.02-0.75,0.08-1.05c0.06-0.31,0.12-0.61,0.19-0.88
		c0.07-0.28,0.07-0.97-0.01-2.08c-0.01-0.49-0.06-1.18-0.15-2.08c-0.09-0.9-0.16-1.6-0.2-2.1c-0.05-0.5-0.06-1.13-0.04-1.91
		c0.03-0.78,0.1-1.47,0.21-2.09c0.02-0.12,0.01-0.31-0.01-0.59c-0.02-0.28-0.05-0.45-0.07-0.52c-0.11-1.18-0.14-2.39-0.09-3.64
		c0.05-1.24,0.14-2.76,0.27-4.55c0.14-1.79,0.21-3.04,0.23-3.75c0.03-0.23,0.08-0.49,0.15-0.76c0.07-0.28,0.15-0.51,0.23-0.69
		c0.08-0.19,0.18-0.39,0.3-0.62c0.12-0.23,0.21-0.42,0.27-0.59c0.78-0.64,1.22-1,1.3-1.09c0.37-0.3,0.66-0.11,0.87,0.56
		c0.1,0.39,0.22,0.86,0.38,1.39c1.86,7.48,2.96,12.78,3.3,15.9c1.38,12.36,2.18,20.48,2.39,24.34c0.15,2.33,0.31,5.42,0.48,9.27
		c0.17,3.85,0.34,7.96,0.48,12.34c0.14,4.38,2.49,150.24,2.42,152.02c-0.03,0.83,1.11,37.34,0.98,38.38c-0.1,0.8-0.34,1.21-0.71,1.2
		C184.03,258.78,181.69,258.05,180.01,256.46z"/>
	<path class="st0" d="M187.79,256.62c0.79,0.76,3.76,180.18,3.78,181.45c-0.04,2.52-0.06,4.08-0.07,4.68
		c-0.09,2.38,0.21,11.27,0.9,26.69c0.11,2.27,0.12,3.84,0.04,4.71c-0.02,0.41,0.03,1.7,0.16,3.85c0.06,0.14,0.1,0.44,0.13,0.9
		c0.03,0.46,0.05,0.82,0.05,1.06c0,0.24,0.01,0.56,0.01,0.95c0,0.4-0.02,0.75-0.08,1.05c-0.06,0.31-0.13,0.6-0.2,0.88
		c-0.07,0.28-0.07,0.97,0,2.08c0.01,0.49,0.06,1.18,0.14,2.08c0.08,0.9,0.15,1.6,0.19,2.1c0.05,0.5,0.05,1.13,0.03,1.91
		c-0.03,0.77-0.1,1.47-0.22,2.09c-0.02,0.12-0.01,0.31,0,0.59c0.02,0.28,0.04,0.45,0.07,0.52c0.1,1.18,0.13,2.39,0.07,3.64
		c-0.05,1.24-0.16,2.76-0.3,4.55c-0.14,1.78-0.23,3.04-0.25,3.75c-0.03,0.23-0.08,0.49-0.16,0.76c-0.07,0.28-0.15,0.51-0.23,0.69
		c-0.08,0.18-0.18,0.39-0.3,0.62c-0.12,0.23-0.21,0.42-0.27,0.58c-0.79,0.63-1.22,0.98-1.31,1.07c-0.37,0.29-0.66,0.1-0.87-0.57
		c-0.1-0.4-0.22-0.86-0.37-1.4c-1.82-7.5-2.89-12.82-3.21-15.95c-1.32-12.38-2.07-20.51-2.26-24.37c-0.13-2.33-0.28-5.43-0.43-9.27
		c-0.15-3.85-0.29-7.96-0.41-12.34c-0.12-4.38-1.68-150.27-1.59-152.05c0.04-0.83-0.91-37.36-0.77-38.39
		c0.11-0.8,0.34-1.2,0.71-1.19C183.77,254.25,186.12,255.01,187.79,256.62z"/>
	<path class="st0" d="M331.96,232.6c-0.79-0.69-4.74-165.37-4.76-166.54c0.03-2.31,0.04-3.74,0.04-4.29
		c0.08-2.18-0.27-10.35-1.04-24.49c-0.12-2.08-0.14-3.52-0.06-4.33c0.02-0.38-0.04-1.56-0.18-3.53c-0.06-0.13-0.1-0.4-0.14-0.83
		c-0.03-0.43-0.05-0.75-0.06-0.97c-0.01-0.22-0.01-0.51-0.02-0.87c-0.01-0.36,0.02-0.69,0.08-0.97c0.06-0.29,0.12-0.56,0.19-0.81
		c0.07-0.25,0.07-0.89-0.01-1.91c-0.01-0.45-0.06-1.08-0.15-1.91c-0.09-0.83-0.16-1.47-0.2-1.92c-0.05-0.46-0.06-1.04-0.04-1.75
		c0.03-0.71,0.1-1.35,0.21-1.92c0.02-0.11,0.01-0.29-0.01-0.54c-0.02-0.25-0.05-0.41-0.07-0.48c-0.11-1.08-0.14-2.2-0.09-3.34
		c0.05-1.14,0.14-2.54,0.27-4.18c0.14-1.64,0.21-2.79,0.23-3.45c0.03-0.21,0.08-0.45,0.15-0.7c0.07-0.25,0.15-0.47,0.23-0.63
		c0.08-0.17,0.18-0.36,0.3-0.57c0.12-0.21,0.21-0.39,0.27-0.54c0.78-0.59,1.22-0.92,1.3-1c0.37-0.27,0.66-0.1,0.87,0.52
		c0.1,0.36,0.22,0.79,0.38,1.28c1.86,6.87,2.96,11.73,3.3,14.6c1.38,11.35,2.18,18.8,2.39,22.34c0.15,2.14,0.31,4.98,0.48,8.51
		c0.17,3.53,0.34,7.31,0.48,11.33c0.14,4.02,2.49,137.94,2.42,139.57c-0.03,0.76,1.11,34.29,0.98,35.24
		c-0.1,0.74-0.34,1.11-0.71,1.11C335.99,234.73,333.65,234.06,331.96,232.6z"/>
	<path class="st0" d="M339.75,232.74c0.79,0.7,3.76,165.43,3.78,166.6c-0.04,2.31-0.06,3.74-0.07,4.29
		c-0.09,2.18,0.21,10.35,0.9,24.5c0.11,2.08,0.12,3.53,0.04,4.33c-0.02,0.38,0.03,1.56,0.16,3.53c0.06,0.13,0.1,0.41,0.13,0.83
		c0.03,0.43,0.05,0.75,0.05,0.97c0,0.22,0.01,0.51,0.01,0.87c0,0.36-0.02,0.68-0.08,0.97c-0.06,0.29-0.13,0.55-0.2,0.81
		s-0.07,0.89,0,1.91c0.01,0.45,0.06,1.08,0.14,1.91s0.15,1.47,0.19,1.93c0.05,0.46,0.05,1.04,0.03,1.75
		c-0.03,0.71-0.1,1.35-0.22,1.92c-0.02,0.11-0.01,0.29,0,0.54c0.02,0.26,0.04,0.41,0.07,0.48c0.1,1.08,0.13,2.2,0.07,3.34
		c-0.05,1.14-0.16,2.53-0.3,4.17c-0.14,1.64-0.23,2.79-0.25,3.44c-0.03,0.21-0.08,0.45-0.16,0.7c-0.07,0.25-0.15,0.46-0.23,0.63
		c-0.08,0.17-0.18,0.36-0.3,0.57c-0.12,0.21-0.21,0.39-0.27,0.53c-0.79,0.58-1.22,0.9-1.31,0.99c-0.37,0.27-0.66,0.09-0.87-0.53
		c-0.1-0.36-0.22-0.79-0.37-1.28c-1.82-6.89-2.89-11.77-3.21-14.64c-1.32-11.37-2.07-18.83-2.26-22.38
		c-0.13-2.14-0.28-4.98-0.43-8.51c-0.15-3.53-0.29-7.31-0.41-11.33c-0.12-4.02-1.68-137.97-1.59-139.6
		c0.04-0.76-0.91-34.3-0.77-35.25c0.11-0.74,0.34-1.1,0.71-1.1C335.73,230.56,338.07,231.26,339.75,232.74z"/>
	<path class="st1" d="M435.32,74.07h-0.13c-0.61,0.54-0.83,1.04-0.65,1.49c-0.18,0.18-0.39,0.45-0.65,0.81
		c-0.26,0.36-0.48,0.7-0.65,1.01c-0.18,0.32-0.26,0.7-0.26,1.15c0.09,0.36-0.22,1.04-0.92,2.03c-0.96,1.35-2.92,4.15-5.89,8.38
		c-0.09,0.09-0.22,0.25-0.39,0.47c-0.18,0.23-0.31,0.38-0.39,0.47c-0.61,1.17-1.4,2.37-2.36,3.58c-0.96,1.22-2.05,2.55-3.27,3.99
		c-1.22,1.44-2.14,2.52-2.75,3.24c-1.31,1.62-3.36,3.51-6.15,5.68c-0.61,0.54-1.59,1.24-2.95,2.1c-1.35,0.86-2.34,1.51-2.94,1.96
		c-2.88,2.25-6.37,2.21-10.47-0.14c-0.52-0.27-1.03-0.59-1.51-0.95c-0.48-0.36-0.89-0.72-1.24-1.08c-0.35-0.36-0.74-0.79-1.18-1.28
		c-0.44-0.49-0.79-0.92-1.05-1.28c-0.26-0.36-0.61-0.83-1.05-1.42c-0.44-0.59-0.79-1.01-1.05-1.28c-0.7-0.9-1.09-2.25-1.18-4.06
		c0-1.8,0.44-4.33,1.31-7.57c1.31-4.87,3.93-11.31,7.85-19.33c3.66-7.3,8.29-15.68,13.87-25.14c0.26-0.45,0.65-1.1,1.18-1.96
		c0.52-0.86,0.94-1.53,1.24-2.03c0.3-0.49,0.65-1.15,1.05-1.96c0.39-0.81,0.67-1.53,0.85-2.16c4.19-6.31,7.72-10.86,10.6-13.65
		c0.09-0.18,0.26-0.31,0.52-0.41c1.13-0.72,1.88-1.17,2.22-1.35c0.35-0.18,0.87-0.34,1.57-0.47c0.7-0.14,1.33,0,1.9,0.41
		c0.57,0.41,1.29,1.06,2.16,1.96c0.52,0.63,1.13,0.9,1.83,0.81c0.09,0,0.22,0.02,0.39,0.07c0.17,0.05,0.3,0.07,0.39,0.07
		c2.88-0.18,5.32,0.5,7.33,2.03c2.01,1.53,3.93,3.74,5.76,6.62c0.7,1.08,1.05,2.43,1.05,4.06c-0.09,1.89-0.44,3.92-1.05,6.08
		c-1.48,5.5-3.58,10.9-6.28,16.22c-3.23,6.22-5.28,10.05-6.15,11.49L435.32,74.07z M402.34,83.67c-0.52,1.26-1.07,2.66-1.64,4.19
		c-0.57,1.53-1,2.84-1.31,3.92c-0.31,1.08-0.72,2.59-1.24,4.53c-0.52,1.94-0.92,3.36-1.18,4.26c0.79,0.09,1.74-0.27,2.88-1.08
		c3.4-2.43,6.24-4.96,8.51-7.57c6.28-7.21,10.82-12.84,13.61-16.9c3.67-5.23,5.93-8.6,6.81-10.14c0.44-0.81,1.18-2.14,2.23-3.99
		c1.05-1.85,1.92-3.47,2.62-4.87c0.7-1.4,1.31-2.77,1.83-4.12c0.26-0.72,0.57-1.4,0.92-2.03c2.09-3.87,3.58-8.11,4.45-12.71
		c0.17-1.62,0.15-2.55-0.07-2.77c-0.22-0.22-1.16-0.25-2.81-0.07c-1.57,0.18-3.19,0.86-4.84,2.03c-2.09,1.35-3.53,2.07-4.32,2.16
		c-0.44,0.09-0.96,0.59-1.57,1.49c-0.7,1.17-1.81,2.91-3.34,5.2c-1.53,2.3-2.73,4.15-3.6,5.54c-0.87,1.4-1.9,3.11-3.08,5.14
		s-2.2,3.94-3.08,5.75c-0.35,0.72-0.94,1.71-1.77,2.97c-0.83,1.26-1.42,2.25-1.77,2.97c-0.61,1.17-1.88,3.63-3.8,7.37
		C404.87,78.69,403.39,81.6,402.34,83.67z"/>
	<path class="st1" d="M93.91,99.51c0-0.12,0.24-0.98,0.71-2.56c-3.08-1.83-6.21-2.26-9.4-1.28c-0.71,0.37-1.63,0.46-2.75,0.28
		c-1.13-0.18-1.95-0.39-2.48-0.64c-0.53-0.24-1.3-0.64-2.31-1.19c-1.01-0.55-1.8-0.89-2.4-1.01c-0.47-0.24-1-0.92-1.6-2.01
		c-1.54-2.32-0.95-3.78,1.77-4.4c0.83-0.24,2.66-0.49,5.5-0.73c0.47-0.12,1.36-0.21,2.66-0.28c1.3-0.06,2.31-0.15,3.02-0.28
		c2.72-0.49,4.91-0.55,6.56-0.18c0.59,0.12,1.06,0.12,1.42,0c0.47,0,1.03-0.03,1.69-0.09c0.65-0.06,1.06-0.09,1.24-0.09
		c0.18,0,0.44-0.06,0.8-0.18c0.35-0.12,0.59-0.24,0.71-0.37c0.12-0.12,0.29-0.37,0.53-0.73c0.24-0.37,0.44-0.76,0.62-1.19
		c0.18-0.43,0.44-1.01,0.8-1.74c6.27-15.02,11.06-25.65,14.37-31.88c1.18-2.08,1.95-3.17,2.31-3.3c0.35-0.12,1.6,0.25,3.73,1.1
		c3.07,1.1,5.32,3.11,6.74,6.05c1.06,2.2,1,4.46-0.18,6.78c-1.06,1.96-4.38,8.61-9.93,19.97c-0.47,0.98-0.53,1.71-0.18,2.2
		c0.47,0.12,2.25-0.18,5.32-0.92c6.74-1.47,12.95-1.89,18.63-1.28c1.42,0.12,2.36,0.37,2.84,0.73c1.89,1.1,2.13,2.38,0.71,3.85
		c-2.37,2.44-4.79,3.91-7.27,4.4c-6.27,1.35-10.88,2.99-13.84,4.95c-0.24,0.12-1.18,0.37-2.84,0.73c-4.85,1.1-7.81,1.71-8.87,1.83
		c-2.01,0.37-3.49,1.41-4.44,3.11c-0.24,0.37-0.59,0.98-1.06,1.83c-0.47,0.86-0.77,1.47-0.89,1.83c-3.9,7.69-5.97,11.66-6.21,11.91
		c-0.59,1.1-1.45,2.72-2.57,4.85c-1.13,2.14-1.98,3.7-2.57,4.67c-0.95,1.47-2.25,2.81-3.9,4.03c-1.06,0.86-2.04,0.95-2.93,0.28
		c-0.89-0.67-1.21-1.62-0.98-2.84c1.06-6.11,1.95-10.2,2.66-12.27C90.12,111.85,91.54,107.21,93.91,99.51z"/>
	<path class="st1" d="M238.09,99.51c0-0.12,0.24-0.98,0.71-2.56c-3.08-1.83-6.21-2.26-9.4-1.28c-0.71,0.37-1.63,0.46-2.75,0.28
		c-1.13-0.18-1.95-0.39-2.48-0.64c-0.53-0.24-1.3-0.64-2.31-1.19c-1.01-0.55-1.8-0.89-2.4-1.01c-0.47-0.24-1-0.92-1.6-2.01
		c-1.54-2.32-0.95-3.78,1.77-4.4c0.83-0.24,2.66-0.49,5.5-0.73c0.47-0.12,1.36-0.21,2.66-0.28c1.3-0.06,2.31-0.15,3.02-0.28
		c2.72-0.49,4.91-0.55,6.56-0.18c0.59,0.12,1.06,0.12,1.42,0c0.47,0,1.03-0.03,1.69-0.09c0.65-0.06,1.06-0.09,1.24-0.09
		c0.18,0,0.44-0.06,0.8-0.18c0.35-0.12,0.59-0.24,0.71-0.37c0.12-0.12,0.29-0.37,0.53-0.73c0.24-0.37,0.44-0.76,0.62-1.19
		c0.18-0.43,0.44-1.01,0.8-1.74c6.27-15.02,11.06-25.65,14.37-31.88c1.18-2.08,1.95-3.17,2.31-3.3c0.35-0.12,1.6,0.25,3.73,1.1
		c3.07,1.1,5.32,3.11,6.74,6.05c1.06,2.2,1,4.46-0.18,6.78c-1.06,1.96-4.38,8.61-9.93,19.97c-0.47,0.98-0.53,1.71-0.18,2.2
		c0.47,0.12,2.25-0.18,5.32-0.92c6.74-1.47,12.95-1.89,18.63-1.28c1.42,0.12,2.36,0.37,2.84,0.73c1.89,1.1,2.13,2.38,0.71,3.85
		c-2.37,2.44-4.79,3.91-7.27,4.4c-6.27,1.35-10.88,2.99-13.84,4.95c-0.24,0.12-1.18,0.37-2.84,0.73c-4.85,1.1-7.81,1.71-8.87,1.83
		c-2.01,0.37-3.49,1.41-4.44,3.11c-0.24,0.37-0.59,0.98-1.06,1.83c-0.47,0.86-0.77,1.47-0.89,1.83c-3.9,7.69-5.97,11.66-6.21,11.91
		c-0.59,1.1-1.45,2.72-2.57,4.85c-1.13,2.14-1.98,3.7-2.57,4.67c-0.95,1.47-2.25,2.81-3.9,4.03c-1.06,0.86-2.04,0.95-2.93,0.28
		c-0.89-0.67-1.21-1.62-0.98-2.84c1.06-6.11,1.95-10.2,2.66-12.27C234.3,111.85,235.72,107.21,238.09,99.51z"/>
	<path class="st1" d="M242.48,251.9c0-0.12,0.24-0.98,0.71-2.56c-3.08-1.83-6.21-2.26-9.4-1.28c-0.71,0.37-1.63,0.46-2.75,0.28
		c-1.13-0.18-1.95-0.39-2.48-0.64c-0.53-0.24-1.3-0.64-2.31-1.19c-1.01-0.55-1.8-0.89-2.4-1.01c-0.47-0.24-1-0.92-1.6-2.01
		c-1.54-2.32-0.95-3.78,1.77-4.4c0.83-0.24,2.66-0.49,5.5-0.73c0.47-0.12,1.36-0.21,2.66-0.28c1.3-0.06,2.31-0.15,3.02-0.28
		c2.72-0.49,4.91-0.55,6.56-0.18c0.59,0.12,1.06,0.12,1.42,0c0.47,0,1.03-0.03,1.69-0.09c0.65-0.06,1.06-0.09,1.24-0.09
		c0.18,0,0.44-0.06,0.8-0.18c0.35-0.12,0.59-0.24,0.71-0.37c0.12-0.12,0.29-0.37,0.53-0.73c0.24-0.37,0.44-0.76,0.62-1.19
		c0.18-0.43,0.44-1.01,0.8-1.74c6.27-15.02,11.06-25.65,14.37-31.88c1.18-2.08,1.95-3.17,2.31-3.3c0.35-0.12,1.6,0.25,3.73,1.1
		c3.07,1.1,5.32,3.11,6.74,6.05c1.06,2.2,1,4.46-0.18,6.78c-1.06,1.96-4.38,8.61-9.93,19.97c-0.47,0.98-0.53,1.71-0.18,2.2
		c0.47,0.12,2.25-0.18,5.32-0.92c6.74-1.47,12.95-1.89,18.63-1.28c1.42,0.12,2.36,0.37,2.84,0.73c1.89,1.1,2.13,2.38,0.71,3.85
		c-2.37,2.44-4.79,3.91-7.27,4.4c-6.27,1.35-10.88,2.99-13.84,4.95c-0.24,0.12-1.18,0.37-2.84,0.73c-4.85,1.1-7.81,1.71-8.87,1.83
		c-2.01,0.37-3.49,1.41-4.44,3.11c-0.24,0.37-0.59,0.98-1.06,1.83c-0.47,0.86-0.77,1.47-0.89,1.83c-3.9,7.69-5.97,11.66-6.21,11.91
		c-0.59,1.1-1.45,2.72-2.57,4.85c-1.13,2.14-1.98,3.7-2.57,4.67c-0.95,1.47-2.25,2.81-3.9,4.03c-1.06,0.86-2.04,0.95-2.93,0.28
		c-0.89-0.67-1.21-1.62-0.98-2.84c1.06-6.11,1.95-10.2,2.66-12.27C238.69,264.24,240.11,259.59,242.48,251.9z"/>
	<path class="st1" d="M395.09,251.9c0-0.12,0.24-0.98,0.71-2.56c-3.08-1.83-6.21-2.26-9.4-1.28c-0.71,0.37-1.63,0.46-2.75,0.28
		c-1.13-0.18-1.95-0.39-2.48-0.64c-0.53-0.24-1.3-0.64-2.31-1.19c-1.01-0.55-1.8-0.89-2.4-1.01c-0.47-0.24-1-0.92-1.6-2.01
		c-1.54-2.32-0.95-3.78,1.77-4.4c0.83-0.24,2.66-0.49,5.5-0.73c0.47-0.12,1.36-0.21,2.66-0.28c1.3-0.06,2.31-0.15,3.02-0.28
		c2.72-0.49,4.91-0.55,6.56-0.18c0.59,0.12,1.06,0.12,1.42,0c0.47,0,1.03-0.03,1.69-0.09c0.65-0.06,1.06-0.09,1.24-0.09
		c0.18,0,0.44-0.06,0.8-0.18c0.35-0.12,0.59-0.24,0.71-0.37c0.12-0.12,0.29-0.37,0.53-0.73c0.24-0.37,0.44-0.76,0.62-1.19
		c0.18-0.43,0.44-1.01,0.8-1.74c6.27-15.02,11.06-25.65,14.37-31.88c1.18-2.08,1.95-3.17,2.31-3.3c0.35-0.12,1.6,0.25,3.73,1.1
		c3.07,1.1,5.32,3.11,6.74,6.05c1.06,2.2,1,4.46-0.18,6.78c-1.06,1.96-4.38,8.61-9.93,19.97c-0.47,0.98-0.53,1.71-0.18,2.2
		c0.47,0.12,2.25-0.18,5.32-0.92c6.74-1.47,12.95-1.89,18.63-1.28c1.42,0.12,2.36,0.37,2.84,0.73c1.89,1.1,2.13,2.38,0.71,3.85
		c-2.37,2.44-4.79,3.91-7.27,4.4c-6.27,1.35-10.88,2.99-13.84,4.95c-0.24,0.12-1.18,0.37-2.84,0.73c-4.85,1.1-7.81,1.71-8.87,1.83
		c-2.01,0.37-3.49,1.41-4.44,3.11c-0.24,0.37-0.59,0.98-1.06,1.83c-0.47,0.86-0.77,1.47-0.89,1.83c-3.9,7.69-5.97,11.66-6.21,11.91
		c-0.59,1.1-1.45,2.72-2.57,4.85c-1.13,2.14-1.98,3.7-2.57,4.67c-0.95,1.47-2.25,2.81-3.9,4.03c-1.06,0.86-2.04,0.95-2.93,0.28
		c-0.89-0.67-1.21-1.62-0.98-2.84c1.06-6.11,1.95-10.2,2.66-12.27C391.31,264.24,392.73,259.59,395.09,251.9z"/>
	<path class="st1" d="M68.31,251.9c0-0.12,0.24-0.98,0.71-2.56c-3.08-1.83-6.21-2.26-9.4-1.28c-0.71,0.37-1.63,0.46-2.75,0.28
		c-1.13-0.18-1.95-0.39-2.48-0.64c-0.53-0.24-1.3-0.64-2.31-1.19c-1.01-0.55-1.8-0.89-2.4-1.01c-0.47-0.24-1-0.92-1.6-2.01
		c-1.54-2.32-0.95-3.78,1.77-4.4c0.83-0.24,2.66-0.49,5.5-0.73c0.47-0.12,1.36-0.21,2.66-0.28c1.3-0.06,2.31-0.15,3.02-0.28
		c2.72-0.49,4.91-0.55,6.56-0.18c0.59,0.12,1.06,0.12,1.42,0c0.47,0,1.03-0.03,1.69-0.09c0.65-0.06,1.06-0.09,1.24-0.09
		c0.18,0,0.44-0.06,0.8-0.18c0.35-0.12,0.59-0.24,0.71-0.37c0.12-0.12,0.29-0.37,0.53-0.73c0.24-0.37,0.44-0.76,0.62-1.19
		c0.18-0.43,0.44-1.01,0.8-1.74c6.27-15.02,11.06-25.65,14.37-31.88c1.18-2.08,1.95-3.17,2.31-3.3c0.35-0.12,1.6,0.25,3.73,1.1
		c3.07,1.1,5.32,3.11,6.74,6.05c1.06,2.2,1,4.46-0.18,6.78c-1.06,1.96-4.38,8.61-9.93,19.97c-0.47,0.98-0.53,1.71-0.18,2.2
		c0.47,0.12,2.25-0.18,5.32-0.92c6.74-1.47,12.95-1.89,18.63-1.28c1.42,0.12,2.36,0.37,2.84,0.73c1.89,1.1,2.13,2.38,0.71,3.85
		c-2.37,2.44-4.79,3.91-7.27,4.4c-6.27,1.35-10.88,2.99-13.84,4.95c-0.24,0.12-1.18,0.37-2.84,0.73c-4.85,1.1-7.81,1.71-8.87,1.83
		c-2.01,0.37-3.49,1.41-4.44,3.11c-0.24,0.37-0.59,0.98-1.06,1.83c-0.47,0.86-0.77,1.47-0.89,1.83c-3.9,7.69-5.97,11.66-6.21,11.91
		c-0.59,1.1-1.45,2.72-2.57,4.85c-1.13,2.14-1.98,3.7-2.57,4.67c-0.95,1.47-2.25,2.81-3.9,4.03c-1.06,0.86-2.04,0.95-2.93,0.28
		c-0.89-0.67-1.21-1.62-0.98-2.84c1.06-6.11,1.95-10.2,2.66-12.27C64.53,264.24,65.95,259.59,68.31,251.9z"/>
	<path class="st1" d="M242.48,421.19c0-0.12,0.24-0.98,0.71-2.56c-3.08-1.83-6.21-2.26-9.4-1.28c-0.71,0.37-1.63,0.46-2.75,0.28
		c-1.13-0.18-1.95-0.39-2.48-0.64c-0.53-0.24-1.3-0.64-2.31-1.19c-1.01-0.55-1.8-0.89-2.4-1.01c-0.47-0.24-1-0.92-1.6-2.01
		c-1.54-2.32-0.95-3.78,1.77-4.4c0.83-0.24,2.66-0.49,5.5-0.73c0.47-0.12,1.36-0.21,2.66-0.28c1.3-0.06,2.31-0.15,3.02-0.28
		c2.72-0.49,4.91-0.55,6.56-0.18c0.59,0.12,1.06,0.12,1.42,0c0.47,0,1.03-0.03,1.69-0.09c0.65-0.06,1.06-0.09,1.24-0.09
		c0.18,0,0.44-0.06,0.8-0.18c0.35-0.12,0.59-0.24,0.71-0.37c0.12-0.12,0.29-0.37,0.53-0.73c0.24-0.37,0.44-0.76,0.62-1.19
		c0.18-0.43,0.44-1.01,0.8-1.74c6.27-15.02,11.06-25.65,14.37-31.88c1.18-2.08,1.95-3.17,2.31-3.3c0.35-0.12,1.6,0.25,3.73,1.1
		c3.07,1.1,5.32,3.11,6.74,6.05c1.06,2.2,1,4.46-0.18,6.78c-1.06,1.96-4.38,8.61-9.93,19.97c-0.47,0.98-0.53,1.71-0.18,2.2
		c0.47,0.12,2.25-0.18,5.32-0.92c6.74-1.47,12.95-1.89,18.63-1.28c1.42,0.12,2.36,0.37,2.84,0.73c1.89,1.1,2.13,2.38,0.71,3.85
		c-2.37,2.44-4.79,3.91-7.27,4.4c-6.27,1.35-10.88,2.99-13.84,4.95c-0.24,0.12-1.18,0.37-2.84,0.73c-4.85,1.1-7.81,1.71-8.87,1.83
		c-2.01,0.37-3.49,1.41-4.44,3.11c-0.24,0.37-0.59,0.98-1.06,1.83c-0.47,0.86-0.77,1.47-0.89,1.83c-3.9,7.69-5.97,11.66-6.21,11.91
		c-0.59,1.1-1.45,2.72-2.57,4.85c-1.13,2.14-1.98,3.7-2.57,4.67c-0.95,1.47-2.25,2.81-3.9,4.03c-1.06,0.86-2.04,0.95-2.93,0.28
		c-0.89-0.67-1.21-1.62-0.98-2.84c1.06-6.11,1.95-10.2,2.66-12.27C238.69,433.52,240.11,428.88,242.48,421.19z"/>
	<path class="st1" d="M93.91,421.19c0-0.12,0.24-0.98,0.71-2.56c-3.08-1.83-6.21-2.26-9.4-1.28c-0.71,0.37-1.63,0.46-2.75,0.28
		c-1.13-0.18-1.95-0.39-2.48-0.64c-0.53-0.24-1.3-0.64-2.31-1.19c-1.01-0.55-1.8-0.89-2.4-1.01c-0.47-0.24-1-0.92-1.6-2.01
		c-1.54-2.32-0.95-3.78,1.77-4.4c0.83-0.24,2.66-0.49,5.5-0.73c0.47-0.12,1.36-0.21,2.66-0.28c1.3-0.06,2.31-0.15,3.02-0.28
		c2.72-0.49,4.91-0.55,6.56-0.18c0.59,0.12,1.06,0.12,1.42,0c0.47,0,1.03-0.03,1.69-0.09c0.65-0.06,1.06-0.09,1.24-0.09
		c0.18,0,0.44-0.06,0.8-0.18c0.35-0.12,0.59-0.24,0.71-0.37c0.12-0.12,0.29-0.37,0.53-0.73c0.24-0.37,0.44-0.76,0.62-1.19
		c0.18-0.43,0.44-1.01,0.8-1.74c6.27-15.02,11.06-25.65,14.37-31.88c1.18-2.08,1.95-3.17,2.31-3.3c0.35-0.12,1.6,0.25,3.73,1.1
		c3.07,1.1,5.32,3.11,6.74,6.05c1.06,2.2,1,4.46-0.18,6.78c-1.06,1.96-4.38,8.61-9.93,19.97c-0.47,0.98-0.53,1.71-0.18,2.2
		c0.47,0.12,2.25-0.18,5.32-0.92c6.74-1.47,12.95-1.89,18.63-1.28c1.42,0.12,2.36,0.37,2.84,0.73c1.89,1.1,2.13,2.38,0.71,3.85
		c-2.37,2.44-4.79,3.91-7.27,4.4c-6.27,1.35-10.88,2.99-13.84,4.95c-0.24,0.12-1.18,0.37-2.84,0.73c-4.85,1.1-7.81,1.71-8.87,1.83
		c-2.01,0.37-3.49,1.41-4.44,3.11c-0.24,0.37-0.59,0.98-1.06,1.83c-0.47,0.86-0.77,1.47-0.89,1.83c-3.9,7.69-5.97,11.66-6.21,11.91
		c-0.59,1.1-1.45,2.72-2.57,4.85c-1.13,2.14-1.98,3.7-2.57,4.67c-0.95,1.47-2.25,2.81-3.9,4.03c-1.06,0.86-2.04,0.95-2.93,0.28
		c-0.89-0.67-1.21-1.62-0.98-2.84c1.06-6.11,1.95-10.2,2.66-12.27C90.12,433.52,91.54,428.88,93.91,421.19z"/>
	<path class="st1" d="M402.13,421.19c0-0.12,0.24-0.98,0.71-2.56c-3.08-1.83-6.21-2.26-9.4-1.28c-0.71,0.37-1.63,0.46-2.75,0.28
		c-1.13-0.18-1.95-0.39-2.48-0.64c-0.53-0.24-1.3-0.64-2.31-1.19c-1.01-0.55-1.8-0.89-2.4-1.01c-0.47-0.24-1-0.92-1.6-2.01
		c-1.54-2.32-0.95-3.78,1.77-4.4c0.83-0.24,2.66-0.49,5.5-0.73c0.47-0.12,1.36-0.21,2.66-0.28c1.3-0.06,2.31-0.15,3.02-0.28
		c2.72-0.49,4.91-0.55,6.56-0.18c0.59,0.12,1.06,0.12,1.42,0c0.47,0,1.03-0.03,1.69-0.09c0.65-0.06,1.06-0.09,1.24-0.09
		c0.18,0,0.44-0.06,0.8-0.18c0.35-0.12,0.59-0.24,0.71-0.37c0.12-0.12,0.29-0.37,0.53-0.73c0.24-0.37,0.44-0.76,0.62-1.19
		c0.18-0.43,0.44-1.01,0.8-1.74c6.27-15.02,11.06-25.65,14.37-31.88c1.18-2.08,1.95-3.17,2.31-3.3c0.35-0.12,1.6,0.25,3.73,1.1
		c3.07,1.1,5.32,3.11,6.74,6.05c1.06,2.2,1,4.46-0.18,6.78c-1.06,1.96-4.38,8.61-9.93,19.97c-0.47,0.98-0.53,1.71-0.18,2.2
		c0.47,0.12,2.25-0.18,5.32-0.92c6.74-1.47,12.95-1.89,18.63-1.28c1.42,0.12,2.36,0.37,2.84,0.73c1.89,1.1,2.13,2.38,0.71,3.85
		c-2.37,2.44-4.79,3.91-7.27,4.4c-6.27,1.35-10.88,2.99-13.84,4.95c-0.24,0.12-1.18,0.37-2.84,0.73c-4.85,1.1-7.81,1.71-8.87,1.83
		c-2.01,0.37-3.49,1.41-4.44,3.11c-0.24,0.37-0.59,0.98-1.06,1.83c-0.47,0.86-0.77,1.47-0.89,1.83c-3.9,7.69-5.97,11.66-6.21,11.91
		c-0.59,1.1-1.45,2.72-2.57,4.85c-1.13,2.14-1.98,3.7-2.57,4.67c-0.95,1.47-2.25,2.81-3.9,4.03c-1.06,0.86-2.04,0.95-2.93,0.28
		c-0.89-0.67-1.21-1.62-0.98-2.84c1.06-6.11,1.95-10.2,2.66-12.27C398.35,433.52,399.77,428.88,402.13,421.19z"/>
</g>
</svg>
